<?xml version="1.0" encoding="UTF-8"?>
<svg width="120" height="32" viewBox="0 0 120 32" xmlns="http://www.w3.org/2000/svg">
  <!-- Purple Solana-like logo -->
  <g>
    <!-- The "SOL" part icon -->
    <circle cx="16" cy="16" r="14" fill="#9945FF" opacity="0.1"/>
    <path d="M7,12 h18 c1.1,0 2,0.9 1.5,2 l-1,2 c-0.5,1 -1.4,1.3 -2.5,1.3 h-18 l2,-5.3 z" fill="#9945FF"/>
    <path d="M6,21 h18 c1.1,0 2,0.9 1.5,2 l-1,2 c-0.5,1 -1.4,1.3 -2.5,1.3 h-18 l2,-5.3 z" fill="#9945FF"/>
    <path d="M10,5 h18 c1.1,0 2,0.9 1.5,2 l-1,2 c-0.5,1 -1.4,1.3 -2.5,1.3 h-18 l2,-5.3 z" fill="#9945FF"/>
  </g>
  
  <!-- SOLSCAN text -->
  <text x="38" y="21" fill="#5735C5" font-family="Arial, sans-serif" font-weight="bold" font-size="16">SOLSCAN</text>
</svg>